<svg xmlns="http://www.w3.org/2000/svg" width="19" height="19"><g data-name="instagram (1)" transform="translate(-.433)" fill="#fff"><path d="M13.773 19h-7.68a5.666 5.666 0 01-5.66-5.66V5.66A5.666 5.666 0 016.093 0h7.68a5.666 5.666 0 015.66 5.66v7.68a5.666 5.666 0 01-5.66 5.66zM6.093 1.911A3.753 3.753 0 002.344 5.66v7.68a3.753 3.753 0 003.749 3.748h7.68a3.752 3.752 0 003.748-3.748V5.66a3.753 3.753 0 00-3.748-3.749z"/><path data-name="Shape" d="M9.933 14a4.5 4.5 0 114.5-4.5 4.505 4.505 0 01-4.5 4.5zm0-7.249A2.749 2.749 0 1012.682 9.5a2.752 2.752 0 00-2.749-2.749z"/><circle cx="1.5" cy="1.5" r="1.5" transform="translate(13.433 3)"/></g></svg>