<svg xmlns="http://www.w3.org/2000/svg" width="64" height="31.986"><path data-name="Caminho 2" d="M50.817 23.041a7.668 7.668 0 00.065.973c-.893-1.5-2.874-2.264-5.692-2.844-3.589-.73-4.085-1.047-4.013-1.838.068-.752 1.274-1.445 3.073-1.445a10.115 10.115 0 014.062.912v-3.625a14.69 14.69 0 00-4.327-.676c-4.529 0-7.568 2.17-7.807 5.15a.328.328 0 010 .056c-1.094-2.937-3.649-5.139-8.05-5.139a8.538 8.538 0 00-8.912 8.566c0 .119 0 .237.006.354-1-2.161-3.593-3.157-7.1-3.921-4.14-.889-4.73-1.3-4.73-2.24 0-.9 1.058-1.678 2.71-1.644a6.8 6.8 0 012.4.461l.71.312C32.808-1.671 57.704 3.309 64 6.372A35.947 35.947 0 0044.353-.002c-12.826 0-22.898 6.983-28.547 12.509l-.014-.005h-.011l-.016-.006a16.447 16.447 0 00-5.64-.947c-4.924 0-8.364 2.463-8.364 6.168 0 2.824 1.469 4.118 4.039 5l-.079.065A54.735 54.735 0 000 28.357a16.83 16.83 0 001.985 1.311 18.76 18.76 0 008.934 2.318c5.258 0 8.577-2.264 8.751-5.97 1.111 3.376 4.224 5.569 8.427 5.569a14.858 14.858 0 003.887-.5v-3.6a9.364 9.364 0 01-3.591.513 4.38 4.38 0 01-4.3-3.355h12.65c.033-.423.065-.694.065-1.147v-.061a11.747 11.747 0 00-.073-1.322c.961 1.326 3.069 1.866 5.96 2.452 3.522.715 3.717 1.254 3.717 2.08 0 .728-.938 1.565-3.018 1.5a15.109 15.109 0 01-6.572-1.8v4.153a17.4 17.4 0 006.558 1.464c4.764 0 8.033-2.791 8.033-5.807v-.194a8.918 8.918 0 004.382 4.388 12.973 12.973 0 005.535 1.211 15.627 15.627 0 002.62-.194v-3.517a8 8 0 01-1.26.1c-3.525 0-6.388-2.219-6.388-4.954s2.86-4.955 6.388-4.955a8.231 8.231 0 011.26.1v-3.463a18.037 18.037 0 00-2.447-.155c-6.091.002-10.686 3.646-10.686 8.519zM11.006 27.63a11.194 11.194 0 01-6.259-1.992 50.112 50.112 0 011.936-2.487l.108-.129c.854.241 1.8.457 2.839.678 4.065.872 4.4 1.605 4.4 2.411-.005.952-1.136 1.519-3.027 1.519zm13.092-5.855a3.976 3.976 0 014.09-3.44 3.806 3.806 0 013.984 3.44z" fill="#fff"/></svg>